<svg xmlns="http://www.w3.org/2000/svg" version="1.1" xmlns:xlink="http://www.w3.org/1999/xlink" xmlns:svgjs="http://svgjs.com/svgjs" width="1000" height="1000"><rect width="1000" height="1000" rx="500" ry="500" fill="#f9f06b"></rect><g transform="matrix(1.5625,0,0,1.5625,99.32908725738525,100.1503691971302)"><svg xmlns="http://www.w3.org/2000/svg" version="1.1" xmlns:xlink="http://www.w3.org/1999/xlink" xmlns:svgjs="http://svgjs.com/svgjs" width="512" height="512"><svg width="512" height="512" viewBox="0 0 512 512" version="1.1" id="svg1" xmlns="http://www.w3.org/2000/svg" xmlns:svg="http://www.w3.org/2000/svg">
  <defs id="defs1"></defs>
  <g id="layer1">
    <g id="g2" transform="matrix(2.4957763,0,0,2.6475945,-460.51193,-606.24072)">
      <path style="fill:#211e1e;fill-opacity:1;fill-rule:evenodd;stroke:none;stroke-width:1.33333" d="m 280.28124,232.01611 -66.96874,38.66666 c -3.4948,2.11459 -3.0573,6.70834 -0.0885,8.47396 l 32.97918,19.04167 c 3.63541,2.09895 7.0677,0.49479 8.58333,-1.125 6.94271,-7.42709 16.39061,-13.01563 26.97395,-14.36459 4.20833,-0.53645 7.27084,-0.54687 11.55209,0 10.57812,1.34896 20.02604,6.9375 26.96874,14.36459 1.51563,1.61979 4.95312,3.22395 8.58855,1.125 l 32.97395,-19.04167 c 2.96876,-1.76562 3.40625,-6.35937 -0.0833,-8.47396 l -66.97394,-38.66666 c -2.41667,-1.38021 -4.83333,-2.03646 -7.25,-2.01563 -2.42188,-0.0208 -4.83855,0.63542 -7.25521,2.01563" id="path12"></path>
      <path style="fill:#211e1e;fill-opacity:1;fill-rule:evenodd;stroke:none;stroke-width:1.33333" d="m 374.1354,369.24006 v -77.33333 c -0.0885,-4.07812 -4.29167,-6 -7.30208,-4.30729 l -32.97396,19.03646 c -3.63541,2.09895 -3.96353,5.86979 -3.31771,8 2.96355,9.72916 2.63022,20.4375 -1.48437,30.28645 -1.64063,3.91667 -3.16145,6.5625 -5.77604,10 -6.46875,8.48959 -15.57812,14.13022 -25.48958,16.4323 -2.16146,0.50521 -5.26563,2.67188 -5.26563,6.86978 v 38.07814 c 0.0416,3.45312 3.80729,6.13541 7.38021,4.16666 l 66.97396,-38.66666 c 2.40625,-1.40626 4.18229,-3.17188 5.36979,-5.27604 1.22917,-2.08334 1.8698,-4.5 1.88541,-7.28647" id="path13"></path>
      <path style="fill:#211e1e;fill-opacity:1;fill-rule:evenodd;stroke:none;stroke-width:1.33333" d="m 200.99999,369.24006 v -77.33333 c 0.0833,-4.07812 4.28647,-6 7.30208,-4.30729 l 32.97396,19.03646 c 3.63543,2.09895 3.96355,5.86979 3.31251,8 -2.95834,9.72916 -2.63022,20.4375 1.48958,30.28645 1.64062,3.91667 3.15624,6.5625 5.77604,10 6.46875,8.48959 15.57812,14.13022 25.48438,16.4323 2.16666,0.50521 5.27082,2.67188 5.27082,6.86978 v 38.07814 c -0.0468,3.45312 -3.80729,6.13541 -7.38541,4.16666 l -66.97396,-38.66666 c -2.40104,-1.40626 -4.17708,-3.17188 -5.36979,-5.27604 -1.22396,-2.08334 -1.86458,-4.5 -1.88021,-7.28647" id="path14"></path>
    </g>
    <path d="m 187.09048,182.26339 51.25307,69.0596 -57.02841,79.98132 h 36.73016 l 38.01087,-54.59015 40.47565,54.59015 h 37.40677 L 224.49723,182.24482 Z" id="path1-7" style="stroke-width:2.11858"></path>
  </g>
</svg></svg></g></svg>